<?xml version="1.0" encoding="utf-8"?>
<!-- Generator: Adobe Illustrator 16.0.0, SVG Export Plug-In . SVG Version: 6.00 Build 0)  -->
<!DOCTYPE svg PUBLIC "-//W3C//DTD SVG 1.1//EN" "http://www.w3.org/Graphics/SVG/1.1/DTD/svg11.dtd">
<svg version="1.1" id="Layer_1" xmlns="http://www.w3.org/2000/svg" xmlns:xlink="http://www.w3.org/1999/xlink" x="0px" y="0px"
	 width="36px" height="36px" viewBox="7 2 36 36" enable-background="new 7 2 36 36" xml:space="preserve">
<path fill="#FFFFFF" d="M35.325,5.86H14.669c-2.103,0-3.812,1.709-3.812,3.812v20.656c0,2.103,1.709,3.812,3.812,3.812h10.19
	l0.021-10.106h-2.628c-0.339,0-0.616-0.277-0.623-0.615l-0.014-3.259c0-0.346,0.277-0.623,0.623-0.623h2.622v-3.147
	c0-3.653,2.227-5.645,5.486-5.645h2.67c0.34,0,0.623,0.276,0.623,0.623v2.746c0,0.339-0.276,0.623-0.623,0.623h-1.64
	c-1.771,0-2.116,0.844-2.116,2.076v2.725h3.895c0.374,0,0.657,0.325,0.616,0.692l-0.388,3.258c-0.034,0.312-0.305,0.547-0.616,0.547
	h-3.493L29.252,34.14h6.06c2.104,0,3.812-1.709,3.812-3.812V9.672C39.137,7.569,37.429,5.86,35.325,5.86z"/>
</svg>
