<?xml version="1.0" encoding="utf-8"?>
<!-- Generator: Adobe Illustrator 16.0.0, SVG Export Plug-In . SVG Version: 6.00 Build 0)  -->
<!DOCTYPE svg PUBLIC "-//W3C//DTD SVG 1.1//EN" "http://www.w3.org/Graphics/SVG/1.1/DTD/svg11.dtd">
<svg version="1.1" id="Capa_1" xmlns="http://www.w3.org/2000/svg" xmlns:xlink="http://www.w3.org/1999/xlink" x="0px" y="0px"
	 width="36px" height="36px" viewBox="238 238 36 36" enable-background="new 238 238 36 36" xml:space="preserve">
<g>
	<path fill="#FFFFFF" d="M270.367,252.433c-0.021-1.465-0.041-2.98-0.435-4.524c-0.453-1.773-1.344-3.211-2.648-4.275
		c-1.353-1.103-3.05-1.745-4.909-1.858c-2.029-0.123-4.114-0.18-6.372-0.175c-2.263-0.005-4.349,0.052-6.377,0.175
		c-1.86,0.113-3.558,0.756-4.91,1.858c-1.305,1.064-2.196,2.502-2.648,4.275c-0.394,1.543-0.415,3.059-0.435,4.524
		c-0.014,1.051-0.029,2.297-0.032,3.569c0.003,1.267,0.018,2.512,0.032,3.564c0.02,1.466,0.041,2.98,0.435,4.523
		c0.452,1.773,1.343,3.212,2.648,4.275c1.352,1.103,3.05,1.745,4.91,1.858c2.028,0.124,4.114,0.182,6.372,0.176
		c0.096,0,0.191,0,0.287,0c2.152,0,4.147-0.058,6.091-0.176c1.859-0.113,3.557-0.756,4.909-1.858
		c1.305-1.063,2.195-2.502,2.648-4.275c0.394-1.543,0.414-3.059,0.435-4.523c0.015-1.052,0.029-2.297,0.032-3.564v-0.005
		C270.396,254.73,270.382,253.484,270.367,252.433z M268.117,259.536c-0.019,1.334-0.037,2.713-0.365,3.998
		c-0.33,1.296-0.967,2.335-1.89,3.088c-0.999,0.814-2.218,1.271-3.624,1.356c-1.981,0.12-4.021,0.176-6.241,0.171
		c-2.214,0.006-4.254-0.051-6.235-0.172c-1.406-0.085-2.625-0.541-3.625-1.355c-0.923-0.753-1.559-1.792-1.89-3.088
		c-0.328-1.285-0.347-2.664-0.365-3.998c-0.014-1.046-0.029-2.283-0.032-3.534c0.003-1.256,0.018-2.494,0.032-3.539
		c0.018-1.334,0.037-2.713,0.365-3.999c0.331-1.296,0.967-2.335,1.89-3.088c0.999-0.814,2.218-1.271,3.625-1.356
		c1.98-0.121,4.02-0.177,6.24-0.171c2.215-0.005,4.254,0.05,6.236,0.171c1.406,0.085,2.625,0.542,3.624,1.356
		c0.923,0.753,1.56,1.792,1.89,3.088c0.328,1.285,0.347,2.665,0.365,3.999c0.015,1.044,0.029,2.281,0.032,3.536
		C268.146,257.254,268.132,258.491,268.117,259.536z"/>
	<circle fill="#FFFFFF" cx="263.763" cy="248.406" r="1.688"/>
	<path fill="#FFFFFF" d="M255.944,248.968c-3.877,0-7.032,3.154-7.032,7.031c0,3.877,3.155,7.032,7.032,7.032
		c3.876,0,7.031-3.154,7.031-7.032C262.975,252.123,259.82,248.968,255.944,248.968z M255.944,260.781
		c-2.637,0-4.782-2.146-4.782-4.782s2.145-4.781,4.782-4.781c2.636,0,4.781,2.145,4.781,4.781S258.58,260.781,255.944,260.781z"/>
</g>
</svg>
