<?xml version="1.0" encoding="utf-8"?>
<!-- Generator: Adobe Illustrator 16.0.0, SVG Export Plug-In . SVG Version: 6.00 Build 0)  -->
<!DOCTYPE svg PUBLIC "-//W3C//DTD SVG 1.1//EN" "http://www.w3.org/Graphics/SVG/1.1/DTD/svg11.dtd">
<svg version="1.1" id="Capa_1" xmlns="http://www.w3.org/2000/svg" xmlns:xlink="http://www.w3.org/1999/xlink" x="0px" y="0px"
	 width="136px" height="136px" viewBox="0 0 136 136" enable-background="new 0 0 136 136" xml:space="preserve">
<g>
	<path fill="none" d="M104.832,37.592c0.148,0.178,0.305,0.351,0.469,0.518c0.128,0.151,0.26,0.296,0.396,0.438
		c0.109,0.067,0.198,0.158,0.265,0.262c0.645,0.61,1.381,1.117,2.183,1.503c0.477-0.343,1.044-0.551,1.642-0.592l7.946-0.594
		c-0.026-0.068-0.067-0.131-0.118-0.184l-2.431-2.666l-5.331,2.171c-0.695,0.277-1.105-0.169-1.237-0.62
		c-0.104-0.359-0.059-0.949,0.608-1.248l5.582-2.487c0.047-0.033,1.046-0.534,1.046-0.534c0.598-0.341,0.453-1.049,0.075-1.465
		c-0.064-0.072-3.823-4.216-3.823-4.216c-0.317-0.346-1.045-0.434-1.391-0.117c-0.071,0.065-0.701,1.263-0.701,1.263
		c-0.033,0.063-2.686,5.152-2.686,5.152c-0.401,0.605-0.974,0.58-1.3,0.566c-0.469-0.021-0.833-0.417-0.812-0.886
		c0.005-0.124,0.037-0.245,0.095-0.355l2.679-5.109l-2.397-2.644c-0.053-0.066-0.12-0.119-0.196-0.154l-1.323,7.833
		c-0.095,0.587-0.351,1.128-0.731,1.571c0.312,0.859,0.756,1.662,1.316,2.379C104.726,37.437,104.785,37.51,104.832,37.592z"/>
	<path fill="none" d="M69.585,70.63c0.734,0.771,0.977,1.532,1.167,2.558l32.728-15.969c1.257-0.658,1.776-1.469,1.418-3.006
		c0-0.038-0.84-7.643-0.84-7.643c-0.073-0.635,0.021-1.208,0.268-1.785c-0.578-0.302-0.757-0.51-1.273-0.905l-1.799,4.65
		c-0.146,0.384-0.9,0.614-1.313,0.595c-0.525-0.023-0.924-0.654-0.902-1.178c0.005-0.104,0.035-0.395,0.074-0.492l2.069-5.351
		c-0.08-0.088-0.066-0.073-0.159-0.175c0,0-5.745,1.601-5.846,1.596c-0.526-0.021-1.313-0.479-1.294-1.003
		c0.017-0.413,0.314-1.144,0.714-1.254l4.833-1.361c-0.348-0.557-0.666-0.767-0.913-1.377c-0.599,0.193-1.054,0.241-1.681,0.11
		l-7.271-1.504c0,0-0.794-0.18-1.146-0.196c-0.972-0.103-1.897,0.431-2.294,1.32l-18.97,30.736
		C68.158,69.28,68.881,69.837,69.585,70.63z M88.758,41.12c0.688-0.194,1.693,0.061,1.889,0.75
		c-0.003,0.064,2.102,7.208,6.458,8.524c0.657,0.281,0.961,1.042,0.68,1.699c-0.192,0.448-0.661,0.854-1.147,0.886
		c-0.103,0.008-0.608-0.028-0.711-0.045c-5.726-1.715-7.848-9.476-7.949-9.817C87.783,42.427,88.069,41.313,88.758,41.12z
		 M84.783,45.189c0.688-0.193,1.728,0.034,1.922,0.723c-0.004,0.065,2.103,7.209,6.459,8.524c0.656,0.282,0.961,1.043,0.679,1.699
		c-0.191,0.447-1.244,0.868-2.228,0.759c-5.724-1.714-7.53-9.154-7.631-9.495C83.79,46.711,84.095,45.383,84.783,45.189z"/>
	<path fill="none" d="M64.217,77.088c1.317-0.678,2.439-1.255,2.439-1.255c-0.156-1.359-0.729-1.938-0.729-1.938
		c-0.518-0.604-1.08-0.81-1.863-0.903l-2.91,4.531C62.254,77.267,63.275,77.121,64.217,77.088z"/>
	<path fill="none" d="M119.803,95.916c-0.409-0.186-0.855-0.186-1.338,0c-0.483,0.187-0.985,0.53-1.504,1.031
		c-0.521,0.502-1.031,1.162-1.533,1.979s-0.938,1.746-1.31,2.786c-0.261,0.78-0.428,1.485-0.501,2.118
		c-0.076,0.52-0.048,1.021,0.082,1.504c0.131,0.482,0.455,0.762,0.977,0.835c0.333,0.076,0.696,0.057,1.086-0.055
		c0.391-0.111,0.799-0.362,1.227-0.752c0.426-0.391,0.863-0.948,1.31-1.673c0.445-0.724,0.872-1.681,1.282-2.87v-0.055
		c0-0.075,0.018-0.131,0.055-0.168l0.278-0.947c0.112-0.334,0.205-0.696,0.279-1.087c0.074-0.39,0.12-0.771,0.14-1.142
		c0.018-0.371-0.01-0.688-0.084-0.948C120.174,96.215,120.025,96.028,119.803,95.916z"/>
	<path fill="#FFFFFF" d="M91.615,56.895c0.983,0.108,2.036-0.312,2.228-0.759c0.282-0.656-0.022-1.417-0.679-1.699
		c-4.356-1.315-6.463-8.459-6.459-8.524c-0.194-0.688-1.233-0.916-1.922-0.723c-0.688,0.194-0.993,1.522-0.799,2.211
		C84.085,47.741,85.892,55.18,91.615,56.895z"/>
	<path fill="#FFFFFF" d="M95.926,52.933c0.103,0.017,0.608,0.053,0.711,0.045c0.486-0.032,0.955-0.438,1.147-0.886
		c0.281-0.657-0.022-1.418-0.68-1.699c-4.356-1.315-6.461-8.459-6.458-8.524c-0.195-0.688-1.2-0.943-1.889-0.75
		c-0.688,0.193-0.975,1.307-0.781,1.996C88.078,43.457,90.2,51.217,95.926,52.933z"/>
	<path fill="#FFFFFF" d="M32.589,83.601c-0.149-1.114-0.465-2.043-0.948-2.786c-0.483-0.743-1.022-1.366-1.616-1.867
		c-0.595-0.502-1.18-0.873-1.756-1.114c-0.577-0.241-1.031-0.419-1.365-0.529c-0.297-0.075-0.595-0.13-0.892-0.168
		c-0.298-0.037-0.595-0.074-0.892-0.111c-1.635-0.186-3.075-0.111-4.319,0.223c-1.245,0.335-2.285,0.744-3.121,1.227
		c-0.835,0.483-1.477,0.957-1.922,1.421c-0.445,0.466-0.688,0.716-0.724,0.753c-0.409,0.409-0.846,0.966-1.31,1.671
		c-0.464,0.707-0.883,1.561-1.254,2.563c-0.446,1.302-0.65,2.563-0.613,3.791c0.037,1.226,0.315,2.303,0.836,3.231
		c0.557,1.04,1.355,1.783,2.396,2.229c-0.298,0-0.632,0.02-1.003,0.057c-0.557,0.036-1.356,0.186-2.396,0.445
		c-1.078,0.298-2.201,0.79-3.372,1.478s-2.127,1.736-2.87,3.147c-0.298,0.484-0.521,0.948-0.669,1.394
		C4.259,101.991,4,103.432,4,104.973s0.408,2.981,1.226,4.318c0.817,1.338,2.126,2.48,3.929,3.428
		c1.801,0.947,4.263,1.477,7.384,1.589c0.223,0,0.455,0.008,0.697,0.027c0.241,0.019,0.51,0.028,0.808,0.028h0.223
		c0.52-0.038,1.216-0.121,2.09-0.251c0.873-0.131,1.792-0.372,2.758-0.725c0.965-0.354,1.903-0.846,2.814-1.477
		c0.91-0.632,1.681-1.449,2.313-2.452c0.482-0.816,0.826-1.579,1.031-2.284c0.204-0.706,0.325-1.357,0.362-1.951
		c0.037-0.595,0.008-1.105-0.083-1.533c-0.094-0.427-0.177-0.752-0.251-0.975c-0.187-0.521-0.539-1.078-1.059-1.673
		c-0.521-0.594-1.282-0.927-2.285-1.003c-0.334-0.036-0.632-0.018-0.892,0.056c-0.223,0.076-0.446,0.167-0.669,0.279
		c-0.223,0.111-0.372,0.315-0.445,0.613c0.334,0.074,0.631,0.204,0.892,0.39c0.223,0.187,0.426,0.465,0.613,0.836
		c0.186,0.372,0.279,0.892,0.279,1.561c0,1.226-0.465,2.378-1.394,3.455c-0.929,1.078-2.285,1.803-4.068,2.174
		c-0.632,0.074-1.393,0.121-2.285,0.139c-0.892,0.02-1.802-0.083-2.731-0.306h-0.055c-0.038,0-0.075-0.019-0.112-0.056
		c-0.26-0.037-0.707-0.158-1.337-0.363c-0.632-0.203-1.282-0.519-1.951-0.947c-0.669-0.427-1.236-0.956-1.7-1.588
		c-0.465-0.631-0.66-1.43-0.585-2.396c0.037-0.854,0.26-1.616,0.669-2.285c0.408-0.743,0.984-1.374,1.727-1.895
		c0.743-0.52,1.561-0.928,2.452-1.227c0.892-0.297,1.812-0.474,2.759-0.529c0.947-0.055,1.847-0.009,2.703,0.14
		c0.259-0.371,0.482-0.799,0.669-1.281c0.186-0.408,0.343-0.893,0.473-1.449c0.13-0.557,0.195-1.151,0.195-1.784
		c-1.301-0.445-2.304-1.076-3.009-1.894c-0.632-0.706-1.031-1.662-1.199-2.87c-0.167-1.208,0.251-2.759,1.254-4.654
		c0.148-0.259,0.316-0.52,0.501-0.78c0.186-0.223,0.39-0.464,0.614-0.724c0.223-0.26,0.482-0.538,0.78-0.837
		c0.259-0.223,0.688-0.51,1.282-0.862c0.594-0.354,1.282-0.567,2.062-0.642h0.446c0.558,0,1.151,0.111,1.783,0.334
		c0.297,0.148,0.585,0.362,0.864,0.641c0.278,0.279,0.482,0.65,0.613,1.115c0.129,0.465,0.158,1.04,0.083,1.728
		c-0.075,0.688-0.316,1.515-0.725,2.48c-0.632,1.522-1.31,2.776-2.034,3.761c-0.725,0.984-1.292,1.663-1.7,2.034
		c0.445,0.521,1.003,0.911,1.672,1.17c0.52,0.224,1.179,0.317,1.979,0.279c0.798-0.037,1.68-0.408,2.647-1.114
		c0.668-0.482,1.244-1.078,1.727-1.783c0.482-0.706,0.873-1.486,1.17-2.341v-0.056c0.074-0.186,0.224-0.761,0.446-1.728
		C32.645,85.867,32.7,84.79,32.589,83.601z"/>
	<path fill="#FFFFFF" d="M54.378,97.979c-0.298-0.147-0.576-0.186-0.835-0.111c-0.261,0.074-0.483,0.187-0.669,0.334
		c-0.223,0.149-0.409,0.372-0.558,0.669c-0.298,0.409-0.604,0.874-0.919,1.393c-0.316,0.521-0.641,1.042-0.975,1.561
		c-0.334,0.521-0.651,1.003-0.948,1.45c-0.298,0.445-0.557,0.799-0.78,1.059s-0.409,0.427-0.557,0.502
		c-0.149,0.074-0.261,0.11-0.334,0.11c-0.111,0-0.205-0.056-0.279-0.167c-0.186-0.111-0.26-0.371-0.223-0.78
		c0.037-0.408,0.129-0.9,0.278-1.477c0.148-0.576,0.343-1.216,0.586-1.923c0.241-0.705,0.51-1.43,0.808-2.173
		c0.668-1.709,1.467-3.604,2.396-5.685c-0.744-0.335-1.459-0.548-2.146-0.642c-0.688-0.092-1.291-0.102-1.811-0.027
		c-0.632,0.075-1.226,0.205-1.783,0.391c-0.372,0.854-0.707,1.671-1.003,2.451c-0.297,0.78-0.557,1.505-0.78,2.174
		c-0.075,0.187-0.131,0.344-0.167,0.474c-0.037,0.131-0.075,0.271-0.111,0.418c-0.223,0.595-0.539,1.385-0.947,2.368
		c-0.41,0.985-0.855,1.951-1.338,2.898s-1.003,1.755-1.56,2.424c-0.558,0.669-1.078,0.985-1.561,0.948
		c-0.298-0.037-0.521-0.223-0.669-0.558c-0.148-0.298-0.214-0.733-0.195-1.311c0.018-0.574,0.195-1.401,0.53-2.479
		c0.259-0.854,0.52-1.681,0.78-2.48c0.259-0.798,0.538-1.605,0.836-2.423l0.725-1.896c0.148-0.408,0.287-0.771,0.417-1.087
		c0.13-0.315,0.232-0.604,0.307-0.863c0.112-0.297,0.204-0.558,0.279-0.78c-0.669-0.334-1.31-0.539-1.922-0.613
		c-0.613-0.073-1.17-0.102-1.672-0.084c-0.501,0.02-0.93,0.075-1.282,0.168c-0.354,0.093-0.585,0.158-0.697,0.195l-0.056,0.056
		l-0.892,2.563c-0.446,1.375-0.874,2.786-1.282,4.234c-0.409,1.45-0.761,2.936-1.059,4.459c-0.074,0.26-0.139,0.623-0.195,1.087
		c-0.056,0.465-0.084,0.919-0.084,1.364c-0.074,0.372-0.018,0.893,0.167,1.561c0.187,0.67,0.595,1.282,1.226,1.84
		c0.631,0.557,1.672,0.873,3.121,0.947h0.501c0.966-0.111,1.82-0.492,2.563-1.143c0.743-0.649,1.43-1.439,2.062-2.368
		c0.074,0.817,0.26,1.449,0.558,1.895c0.297,0.446,0.613,0.799,0.947,1.06c0.408,0.297,0.836,0.482,1.281,0.557
		c1.263,0.186,2.443-0.092,3.54-0.836c1.095-0.742,2.062-1.634,2.897-2.675c0.836-1.04,1.542-2.08,2.118-3.121
		c0.576-1.039,0.975-1.764,1.198-2.173c0.446-0.855,0.725-1.625,0.836-2.313C55.158,98.713,54.936,98.239,54.378,97.979z"/>
	<path fill="#FFFFFF" d="M83.134,114.753c-0.26,0-0.558-0.093-0.892-0.278c-0.334-0.187-0.65-0.483-0.947-0.892
		c-0.298-0.409-0.549-0.967-0.753-1.673c-0.204-0.705-0.306-1.578-0.306-2.619c0-2.265,0.157-3.946,0.474-5.043
		c0.315-1.096,0.529-1.812,0.641-2.146c0.446-1.485,0.956-3.028,1.532-4.626c0.576-1.597,1.134-3.121,1.673-4.569
		c0.538-1.448,0.993-2.767,1.364-3.957c0.371-1.188,0.558-2.153,0.558-2.897c0-0.631-0.075-1.254-0.223-1.867
		c-0.149-0.613-0.409-1.17-0.78-1.672c-0.372-0.502-0.846-0.91-1.421-1.227c-0.577-0.315-1.273-0.474-2.09-0.474
		c-0.817,0-1.691,0.187-2.619,0.558c-0.93,0.372-1.886,0.892-2.87,1.561s-1.97,1.459-2.954,2.369
		c-0.985,0.91-1.941,1.922-2.87,3.037c0.297-0.817,0.548-1.662,0.753-2.536c0.203-0.872,0.27-1.793,0.194-2.759
		c-0.11-1.15-0.399-2.104-0.864-2.857c-0.464-0.752-1.031-1.356-1.699-1.814c-0.027-0.02-0.056-0.036-0.084-0.056l37.22-18.306
		c2.405-0.932,3.699-3.55,2.978-6.026l-0.926-8.494c-0.066-0.539,0.092-1.082,0.437-1.502c0.336-0.396,0.818-0.64,1.337-0.672
		l9.976-0.749c0.788,0.056,1.533-0.37,1.885-1.079c0.42-0.938,0.217-2.038-0.509-2.765l-2.568-2.816
		c0.34-0.143,0.652-0.343,0.925-0.592c1.319-1.204,1.413-3.25,0.209-4.569l-6.031-6.615c-0.248-0.272-0.54-0.5-0.865-0.674
		c-1.576-0.842-3.536-0.248-4.378,1.328l-2.568-2.816c-0.657-0.791-1.733-1.093-2.706-0.762c-0.718,0.297-1.19,0.992-1.204,1.769
		l-1.664,9.864c-0.081,0.513-0.367,0.972-0.794,1.27c-0.452,0.305-1.012,0.412-1.545,0.295L89.783,32.7
		c-2.411-0.974-5.165,0.076-6.317,2.407l-27.079,44.23c-0.114,0.063-0.226,0.127-0.338,0.192c-1.337,0.789-2.443,1.758-3.315,2.906
		s-1.254,2.446-1.143,3.896c0.075,0.669,0.233,1.235,0.474,1.699c0.242,0.466,0.511,0.846,0.808,1.144
		c0.334,0.371,0.725,0.649,1.17,0.835c0.186-0.371,0.529-0.882,1.031-1.532c0.501-0.65,1.151-1.338,1.951-2.063
		c0.798-0.724,1.755-1.439,2.87-2.145c1.115-0.706,2.377-1.319,3.79-1.839c0.408-0.148,0.928-0.326,1.561-0.53
		c0.631-0.204,1.151-0.307,1.561-0.307c0.297,0,0.464,0.094,0.501,0.279c0,0.223-0.066,0.538-0.195,0.946
		c-0.13,0.41-0.288,0.856-0.474,1.338c-0.186,0.484-0.399,0.976-0.641,1.477c-0.242,0.502-0.438,0.957-0.585,1.366
		c-0.632,1.448-1.402,3.084-2.313,4.904s-1.765,3.725-2.563,5.712c-0.799,1.987-1.449,3.994-1.951,6.019
		c-0.501,2.025-0.678,3.966-0.529,5.824c0.111,1.076,0.39,1.95,0.835,2.619c0.446,0.668,0.956,1.188,1.533,1.56
		c0.576,0.371,1.179,0.613,1.812,0.726c0.631,0.11,1.207,0.167,1.728,0.167c0.223,0,0.427,0,0.613,0c0.186,0,0.353-0.02,0.501-0.057
		c0.148-0.037,0.297-0.074,0.446-0.11c-0.855-1.227-1.337-2.657-1.449-4.292c-0.075-0.928-0.047-1.895,0.083-2.897
		c0.129-1.004,0.325-2.043,0.585-3.121c0.705-2.563,1.718-4.876,3.037-6.938c1.318-2.063,2.702-3.837,4.152-5.323
		c1.448-1.485,2.842-2.628,4.18-3.427c1.337-0.799,2.396-1.198,3.176-1.198c0.743,0,1.115,0.334,1.115,1.003
		c0,0.261-0.048,0.529-0.14,0.808c-0.094,0.279-0.214,0.623-0.362,1.031c-1.189,3.085-2.229,6.316-3.12,9.697
		c-0.893,3.381-1.487,6.688-1.784,9.92c0,1.561,0.148,2.814,0.446,3.761c0.297,0.948,0.687,1.682,1.171,2.202
		c0.481,0.521,1.039,0.873,1.671,1.06c0.632,0.185,1.264,0.278,1.896,0.278c0.223,0,0.538-0.02,0.947-0.056
		c0.408-0.038,0.808-0.141,1.197-0.307c0.391-0.167,0.733-0.4,1.031-0.696c0.298-0.299,0.446-0.725,0.446-1.282
		c-0.037,0.036-0.093,0.074-0.168,0.111C83.561,114.734,83.394,114.753,83.134,114.753z M104.071,33.426l1.323-7.833
		c0.076,0.035,0.144,0.088,0.196,0.154l2.397,2.644L105.31,33.5c-0.058,0.11-0.09,0.231-0.095,0.355
		c-0.021,0.469,0.343,0.865,0.812,0.886c0.326,0.014,0.898,0.04,1.3-0.566c0,0,2.652-5.09,2.686-5.152c0,0,0.63-1.197,0.701-1.263
		c0.346-0.317,1.073-0.229,1.391,0.117c0,0,3.759,4.144,3.823,4.216c0.378,0.417,0.522,1.125-0.075,1.465
		c0,0-0.999,0.501-1.046,0.534l-5.582,2.487c-0.667,0.299-0.713,0.889-0.608,1.248c0.132,0.451,0.542,0.897,1.237,0.62l5.331-2.171
		l2.431,2.666c0.051,0.053,0.092,0.116,0.118,0.184l-7.946,0.594c-0.598,0.041-1.165,0.249-1.642,0.592
		c-0.802-0.386-1.538-0.893-2.183-1.503c-0.066-0.104-0.155-0.194-0.265-0.262c-0.137-0.141-0.269-0.287-0.396-0.438
		c-0.164-0.167-0.32-0.34-0.469-0.518c-0.047-0.083-0.106-0.156-0.176-0.217c-0.561-0.717-1.005-1.52-1.316-2.379
		C103.721,34.554,103.977,34.013,104.071,33.426z M86.125,38.261c0.396-0.889,1.322-1.422,2.294-1.32
		c0.352,0.016,1.146,0.196,1.146,0.196l7.271,1.504c0.627,0.13,1.082,0.083,1.681-0.11c0.247,0.61,0.565,0.82,0.913,1.377
		l-4.833,1.361c-0.399,0.11-0.697,0.841-0.714,1.254c-0.02,0.524,0.768,0.982,1.294,1.003c0.101,0.004,5.846-1.596,5.846-1.596
		c0.093,0.102,0.079,0.087,0.159,0.175l-2.069,5.351c-0.039,0.097-0.069,0.388-0.074,0.492c-0.021,0.523,0.377,1.154,0.902,1.178
		c0.412,0.019,1.167-0.211,1.313-0.595l1.799-4.65c0.517,0.395,0.695,0.603,1.273,0.905c-0.247,0.577-0.341,1.15-0.268,1.785
		c0,0,0.84,7.604,0.84,7.643c0.358,1.537-0.161,2.348-1.418,3.006L70.752,73.188c-0.19-1.025-0.433-1.786-1.167-2.558
		c-0.704-0.793-1.427-1.35-2.43-1.633L86.125,38.261z M65.928,73.895c0,0,0.573,0.579,0.729,1.938c0,0-1.122,0.577-2.439,1.255
		c-0.16,0.009-3.813,1.693-3.813,1.693l3.661-5.79C64.848,73.085,65.411,73.291,65.928,73.895z"/>
	<path fill="#FFFFFF" d="M92.412,85.523c-0.762,0.056-1.364,0.121-1.811,0.194c-0.187,0.037-0.372,0.149-0.558,0.335
		c-0.075,0.074-0.131,0.148-0.167,0.223c-0.187,0.409-0.344,0.78-0.474,1.115c-0.131,0.333-0.251,0.668-0.362,1.003l-0.111,0.445
		c-0.075,0.26-0.056,0.502,0.056,0.725c0.111,0.298,0.334,0.585,0.669,0.864c0.334,0.278,0.836,0.455,1.504,0.529
		c0.743,0.111,1.338,0.037,1.783-0.223c0.446-0.261,0.78-0.521,1.003-0.78c0.148-0.148,0.279-0.335,0.391-0.558
		c0.074-0.148,0.13-0.278,0.167-0.391l0.837-1.895c0.147-0.408,0.11-0.725-0.112-0.947c-0.11-0.111-0.241-0.203-0.39-0.279
		C93.981,85.589,93.174,85.468,92.412,85.523z"/>
	<path fill="#FFFFFF" d="M131.338,97.979c-0.334-0.147-0.632-0.186-0.892-0.111s-0.483,0.187-0.669,0.334
		c-0.223,0.149-0.408,0.372-0.557,0.669c-0.261,0.409-0.558,0.874-0.892,1.393c-0.335,0.521-0.661,1.042-0.976,1.561
		c-0.316,0.521-0.623,1.003-0.919,1.45c-0.299,0.445-0.558,0.799-0.78,1.059s-0.409,0.427-0.558,0.502
		c-0.149,0.074-0.279,0.11-0.39,0.11c-0.149,0-0.242-0.056-0.279-0.167c-0.148-0.111-0.214-0.371-0.195-0.78
		c0.019-0.408,0.103-0.9,0.252-1.477c0.146-0.576,0.342-1.216,0.584-1.923c0.241-0.705,0.511-1.43,0.809-2.173
		c0.669-1.709,1.467-3.604,2.396-5.685c-0.744-0.335-1.459-0.548-2.146-0.642c-0.688-0.092-1.291-0.102-1.812-0.027
		c-0.632,0.075-1.207,0.205-1.728,0.391l-0.445,1.003c-0.262-0.298-0.642-0.566-1.144-0.809c-0.501-0.241-1.234-0.362-2.2-0.362
		c-0.856,0-1.747,0.121-2.676,0.362c-0.93,0.242-1.831,0.688-2.702,1.338c-0.873,0.65-1.692,1.524-2.453,2.619
		c-0.382,0.55-0.738,1.177-1.068,1.882c-0.089,0.107-0.17,0.232-0.24,0.375c-0.335,0.521-0.725,1.124-1.17,1.812
		c-0.447,0.688-0.874,1.347-1.282,1.978l-0.613,0.836c-0.335,0.41-0.716,0.855-1.142,1.338c-0.428,0.483-0.901,0.892-1.422,1.227
		l-1.115,0.501c-0.52,0.223-1.059,0.372-1.615,0.445c-0.557,0.076-1.134,0.021-1.728-0.166l-0.279-0.112
		c-0.074-0.036-0.148-0.073-0.223-0.11s-0.148-0.093-0.223-0.168c-0.261-0.147-0.465-0.37-0.612-0.669
		c-0.224-0.445-0.335-0.761-0.335-0.947c-0.037-0.334-0.027-0.687,0.028-1.059c0.056-0.371,0.12-0.706,0.194-1.003
		c0.112-0.371,0.223-0.725,0.335-1.059c0.371-1.04,0.809-1.97,1.31-2.787c0.502-0.816,1.003-1.478,1.505-1.979
		c0.501-0.502,1.003-0.845,1.504-1.031c0.502-0.186,0.938-0.186,1.31,0c0.335,0.187,0.511,0.558,0.53,1.115
		c0.018,0.558-0.048,1.134-0.195,1.728c0,0.075,0.018,0.148,0.056,0.223c0.036,0.075,0.147,0.111,0.334,0.111
		c0.037,0,0.064-0.009,0.084-0.027c0.018-0.019,0.046-0.028,0.083-0.028c0.298-0.074,0.659-0.195,1.087-0.361
		c0.428-0.168,0.845-0.493,1.254-0.977c0.112-0.186,0.177-0.361,0.196-0.529c0.018-0.167,0.026-0.287,0.026-0.361
		c-0.037-0.186-0.065-0.399-0.083-0.642c-0.02-0.241-0.064-0.491-0.14-0.753v-0.055c-0.074-0.224-0.11-0.354-0.11-0.391
		c-0.299-0.854-0.725-1.467-1.282-1.839c-0.558-0.371-1.003-0.594-1.338-0.669c-0.445-0.111-0.929-0.167-1.448-0.167
		c-0.855,0-1.747,0.12-2.676,0.362s-1.83,0.688-2.703,1.338s-1.69,1.523-2.451,2.619c-0.426,0.611-0.817,1.321-1.179,2.124
		c-0.025,0.043-0.051,0.085-0.075,0.133c-0.298,0.409-0.604,0.873-0.92,1.393c-0.315,0.521-0.641,1.041-0.975,1.561
		c-0.334,0.521-0.651,1.003-0.947,1.449c-0.299,0.446-0.558,0.799-0.78,1.06c-0.223,0.26-0.409,0.427-0.558,0.501
		c-0.149,0.075-0.278,0.111-0.39,0.111c-0.149,0-0.242-0.057-0.278-0.167c-0.149-0.112-0.205-0.371-0.168-0.78
		c0.037-0.408,0.129-0.9,0.278-1.477c0.148-0.576,0.343-1.217,0.586-1.923c0.241-0.705,0.51-1.431,0.808-2.174
		c0.669-1.708,1.468-3.604,2.397-5.684c-0.744-0.335-1.459-0.549-2.146-0.642s-1.291-0.102-1.812-0.028
		c-0.632,0.076-1.226,0.205-1.783,0.391c-0.78,1.895-1.412,3.521-1.895,4.877c-0.482,1.355-0.854,2.499-1.114,3.426
		c-0.335,1.079-0.558,2.008-0.669,2.788c-0.409,1.635-0.502,2.907-0.279,3.817s0.539,1.606,0.948,2.09
		c0.482,0.558,1.096,0.91,1.838,1.059c1.264,0.186,2.434-0.092,3.512-0.836c1.077-0.743,2.034-1.635,2.87-2.676
		c0.046-0.057,0.089-0.113,0.134-0.17c0.15,0.793,0.485,1.501,1.008,2.121c0,0.037,0.02,0.055,0.056,0.055
		c0.446,0.521,0.966,0.912,1.561,1.171c0.594,0.26,1.17,0.465,1.728,0.612c0.631,0.148,1.281,0.242,1.951,0.279
		c0.557,0.037,1.076,0.037,1.56,0l1.227-0.167c1.039-0.223,1.986-0.594,2.842-1.115c0.854-0.519,1.616-1.076,2.285-1.671
		c0.557-0.494,1.047-0.996,1.475-1.503c0.04,0.222,0.086,0.444,0.141,0.666c0.149,0.595,0.399,1.125,0.753,1.589
		c0.354,0.465,0.826,0.854,1.421,1.17c0.594,0.317,1.355,0.511,2.285,0.585c1.411,0.112,2.582-0.139,3.51-0.752
		c0.929-0.613,1.653-1.346,2.174-2.201c0.148,0.633,0.381,1.143,0.696,1.533c0.315,0.39,0.622,0.678,0.921,0.863
		c0.371,0.223,0.743,0.371,1.113,0.446c1.264,0.186,2.434-0.092,3.512-0.836c1.077-0.743,2.188-2.238,3.023-3.278
		c0.835-1.039,3.933-6.316,4.025-7.004C132.071,98.713,131.858,98.239,131.338,97.979z M120.332,97.422
		c-0.02,0.371-0.065,0.752-0.14,1.142c-0.074,0.391-0.167,0.753-0.279,1.087l-0.278,0.947c-0.037,0.037-0.055,0.093-0.055,0.168
		v0.055c-0.41,1.189-0.837,2.146-1.282,2.87c-0.446,0.725-0.884,1.282-1.31,1.673c-0.428,0.39-0.836,0.641-1.227,0.752
		c-0.39,0.111-0.753,0.131-1.086,0.055c-0.521-0.073-0.846-0.353-0.977-0.835c-0.13-0.482-0.158-0.984-0.082-1.504
		c0.073-0.633,0.24-1.338,0.501-2.118c0.371-1.04,0.808-1.969,1.31-2.786s1.012-1.478,1.533-1.979
		c0.519-0.501,1.021-0.845,1.504-1.031c0.482-0.186,0.929-0.186,1.338,0c0.223,0.112,0.371,0.299,0.445,0.558
		C120.322,96.734,120.35,97.051,120.332,97.422z"/>
</g>
</svg>
